<svg width="99" height="26" viewBox="0 0 99 26" fill="none" xmlns="http://www.w3.org/2000/svg">
<path d="M42.2708 19.4998C42.1272 19.4998 42.0097 19.4608 41.9183 19.3828C41.8269 19.2918 41.7812 19.1748 41.7812 19.0318V6.33727C41.7812 6.19427 41.8269 6.07727 41.9183 5.98627C42.0097 5.89527 42.1272 5.84977 42.2708 5.84977H43.8178C44.092 5.84977 44.2878 5.97327 44.4053 6.22027L48.1847 13.2403L52.0033 6.22027C52.1338 5.97327 52.3296 5.84977 52.5907 5.84977H54.1182C54.2618 5.84977 54.3793 5.89527 54.4707 5.98627C54.562 6.07727 54.6077 6.19427 54.6077 6.33727V19.0318C54.6077 19.1748 54.562 19.2918 54.4707 19.3828C54.3793 19.4608 54.2618 19.4998 54.1182 19.4998H52.4733C52.3427 19.4998 52.2317 19.4543 52.1404 19.3633C52.049 19.2723 52.0033 19.1618 52.0033 19.0318V10.5883L49.2617 15.7948C49.092 16.0808 48.8701 16.2238 48.5959 16.2238H47.7931C47.5189 16.2238 47.297 16.0808 47.1273 15.7948L44.3857 10.5883V19.0318C44.3857 19.1618 44.34 19.2723 44.2486 19.3633C44.1703 19.4543 44.0593 19.4998 43.9157 19.4998H42.2708Z" fill="black"/>
<path d="M60.3757 19.6948C59.7099 19.6948 59.0963 19.5648 58.5349 19.3048C57.9866 19.0318 57.5493 18.6678 57.2229 18.2128C56.9096 17.7578 56.7529 17.2573 56.7529 16.7113C56.7529 15.8273 57.1119 15.1123 57.83 14.5663C58.548 14.0203 59.5336 13.6498 60.7869 13.4548L63.4697 13.0648V12.6553C63.4697 12.0833 63.3261 11.6543 63.0389 11.3683C62.7517 11.0823 62.2882 10.9393 61.6485 10.9393C61.2177 10.9393 60.8652 11.0238 60.5911 11.1928C60.33 11.3488 60.1211 11.5048 59.9644 11.6608C59.8078 11.8298 59.7033 11.9403 59.6511 11.9923C59.5989 12.1483 59.501 12.2263 59.3574 12.2263H57.8495C57.732 12.2263 57.6276 12.1873 57.5362 12.1093C57.4579 12.0313 57.4187 11.9273 57.4187 11.7973C57.4318 11.4723 57.5884 11.1018 57.8887 10.6858C58.202 10.2698 58.6785 9.91227 59.3182 9.61327C59.9579 9.31427 60.7412 9.16477 61.6681 9.16477C63.2086 9.16477 64.3313 9.50927 65.0363 10.1983C65.7413 10.8873 66.0937 11.7908 66.0937 12.9088V19.0318C66.0937 19.1618 66.0481 19.2723 65.9567 19.3633C65.8783 19.4543 65.7674 19.4998 65.6238 19.4998H64.0376C63.907 19.4998 63.7961 19.4543 63.7047 19.3633C63.6133 19.2723 63.5676 19.1618 63.5676 19.0318V18.2713C63.2804 18.6873 62.8692 19.0318 62.3339 19.3048C61.8117 19.5648 61.159 19.6948 60.3757 19.6948ZM61.0415 17.8423C61.7595 17.8423 62.347 17.6083 62.8039 17.1403C63.2608 16.6723 63.4893 15.9898 63.4893 15.0928V14.6833L61.531 14.9953C60.7739 15.1123 60.1994 15.3008 59.8078 15.5608C59.4292 15.8208 59.2399 16.1393 59.2399 16.5163C59.2399 16.9323 59.4161 17.2573 59.7686 17.4913C60.1211 17.7253 60.5454 17.8423 61.0415 17.8423Z" fill="black"/>
<path d="M69.0759 19.4998C68.9454 19.4998 68.8344 19.4543 68.743 19.3633C68.6516 19.2723 68.606 19.1618 68.606 19.0318V9.84727C68.606 9.71727 68.6516 9.60677 68.743 9.51577C68.8344 9.41177 68.9454 9.35977 69.0759 9.35977H70.6621C70.8057 9.35977 70.9232 9.40527 71.0146 9.49627C71.106 9.58727 71.1517 9.70427 71.1517 9.84727V10.6468C71.465 10.2308 71.8566 9.91227 72.3266 9.69127C72.8096 9.47027 73.358 9.35977 73.9715 9.35977H74.7744C74.918 9.35977 75.029 9.40527 75.1073 9.49627C75.1987 9.57427 75.2444 9.68477 75.2444 9.82777V11.2318C75.2444 11.3618 75.1987 11.4723 75.1073 11.5633C75.029 11.6543 74.918 11.6998 74.7744 11.6998H73.247C72.6334 11.6998 72.1504 11.8753 71.7979 12.2263C71.4454 12.5773 71.2692 13.0583 71.2692 13.6693V19.0318C71.2692 19.1618 71.2235 19.2723 71.1321 19.3633C71.0407 19.4543 70.9232 19.4998 70.7796 19.4998H69.0759Z" fill="black"/>
<path d="M80.3748 19.4998C80.179 19.4998 80.0289 19.4608 79.9244 19.3828C79.82 19.2918 79.7351 19.1683 79.6699 19.0123L76.008 9.96427L75.9688 9.78877C75.9688 9.67177 76.008 9.57427 76.0863 9.49627C76.1777 9.40527 76.2821 9.35977 76.3996 9.35977H77.9858C78.2338 9.35977 78.4035 9.48327 78.4949 9.73027L81.0994 16.5748L83.7038 9.73027C83.743 9.63927 83.8018 9.55477 83.8801 9.47677C83.9715 9.39877 84.0824 9.35977 84.213 9.35977H85.8187C85.9232 9.35977 86.0146 9.40527 86.0929 9.49627C86.1843 9.57427 86.23 9.67177 86.23 9.78877C86.23 9.86677 86.2235 9.92527 86.2104 9.96427L82.5289 19.0123C82.4636 19.1683 82.3788 19.2918 82.2743 19.3828C82.1699 19.4608 82.0198 19.4998 81.8239 19.4998H80.3748Z" fill="black"/>
<path d="M88.5058 19.4998C88.3753 19.4998 88.2643 19.4543 88.1729 19.3633C88.0815 19.2723 88.0358 19.1618 88.0358 19.0318V6.12277C88.0358 5.97977 88.0815 5.86927 88.1729 5.79127C88.2643 5.70027 88.3753 5.65477 88.5058 5.65477H90.1312C90.2748 5.65477 90.3857 5.70027 90.4641 5.79127C90.5554 5.86927 90.6011 5.97977 90.6011 6.12277V19.0318C90.6011 19.1618 90.5554 19.2723 90.4641 19.3633C90.3857 19.4543 90.2748 19.4998 90.1312 19.4998H88.5058Z" fill="black"/>
<path d="M93.5904 7.68277C93.4598 7.68277 93.3489 7.63727 93.2575 7.54627C93.1661 7.45527 93.1204 7.34477 93.1204 7.21477V5.81077C93.1204 5.68077 93.1661 5.57027 93.2575 5.47927C93.3489 5.38827 93.4598 5.34277 93.5904 5.34277H95.3724C95.5029 5.34277 95.6139 5.38827 95.7053 5.47927C95.8097 5.57027 95.8619 5.68077 95.8619 5.81077V7.21477C95.8619 7.34477 95.8162 7.45527 95.7248 7.54627C95.6335 7.63727 95.516 7.68277 95.3724 7.68277H93.5904ZM93.6687 19.4998C93.5381 19.4998 93.4272 19.4543 93.3358 19.3633C93.2444 19.2723 93.1987 19.1618 93.1987 19.0318V9.82777C93.1987 9.69777 93.2444 9.58727 93.3358 9.49627C93.4272 9.40527 93.5381 9.35977 93.6687 9.35977H95.294C95.4376 9.35977 95.5486 9.40527 95.6269 9.49627C95.7183 9.57427 95.764 9.68477 95.764 9.82777V19.0318C95.764 19.1618 95.7183 19.2723 95.6269 19.3633C95.5486 19.4543 95.4376 19.4998 95.294 19.4998H93.6687Z" fill="black"/>
<rect width="18.1309" height="6.94078" rx="3.47039" transform="matrix(0.424084 0.905623 -0.906988 0.421156 20.5977 3.25)" fill="url(#paint0_linear)"/>
<rect width="18.1306" height="6.94078" rx="3.47039" transform="matrix(0.424084 -0.905623 0.906989 0.421156 0 19.6802)" fill="url(#paint1_linear)"/>
<rect width="18.1309" height="6.94078" rx="3.47039" transform="matrix(0.424084 0.905623 -0.906988 0.421156 11.0547 3.25)" fill="url(#paint2_linear)"/>
<rect width="18.1306" height="6.94078" rx="3.47039" transform="matrix(0.424084 -0.905623 0.906989 0.421156 9.53125 19.6802)" fill="url(#paint3_linear)"/>
<defs>
<linearGradient id="paint0_linear" x1="17.9421" y1="3.21825" x2="7.97307" y2="3.7519" gradientUnits="userSpaceOnUse">
<stop stop-color="#27ECB9"/>
<stop offset="1" stop-color="#26DAAD"/>
</linearGradient>
<linearGradient id="paint1_linear" x1="0.437965" y1="2.33611" x2="11.7197" y2="2.90553" gradientUnits="userSpaceOnUse">
<stop stop-color="#108181"/>
<stop offset="1" stop-color="#0E7373"/>
</linearGradient>
<linearGradient id="paint2_linear" x1="0.144644" y1="3.86894" x2="10.8943" y2="3.05199" gradientUnits="userSpaceOnUse">
<stop stop-color="#07A3A3"/>
<stop offset="1" stop-color="#0B9897"/>
</linearGradient>
<linearGradient id="paint3_linear" x1="0.11008" y1="3.02438" x2="17.6715" y2="4.55099" gradientUnits="userSpaceOnUse">
<stop stop-color="#0FC1AB"/>
<stop offset="1" stop-color="#14BEA9"/>
</linearGradient>
</defs>
</svg>
